<svg xmlns="http://www.w3.org/2000/svg" width="113" height="32" viewBox="0 0 113 32"><path fill="#FFF" fill-rule="evenodd" d="M44.192 0h9.782v.917l-2.529 1.168v15.696l2.529 1.17v.916h-9.782v-.916l2.53-1.17V2.085L44.192.917V0zm33.85 0c3 0 4.723.331 6.057 1.14 1.389.862 2.307 2.609 2.307 4.418 0 1.832-.807 3.331-2.223 4.39-1.361 1.03-3.336 1.613-5.694 1.613h-1.863v6.22l2.53 1.17v.916h-9.783v-.916l2.528-1.17V2.054L69.373.917V0h8.669zm-.696 10.085c3.03 0 4.17-1.751 4.17-4.527 0-2.557-1.113-4.088-3.752-4.088h-1.138v8.615h.72zm33.717-4.584l-1.5-4.03h-3.224v16.31l3.251 1.17v.916H98.339v-.915l3.249-1.17V1.47h-3.28l-1.445 4.031h-1.64v-5.5h17.479v5.5h-1.64zM0 .001h30.476v18.136C30.126 8.533 22.608.762 13.113.013v17.373h7.285v-6.105a11.546 11.546 0 0 1 2.805 7.558c0 6.372-5.138 11.542-11.496 11.595h-.041C5.202 30.434.01 25.24.01 18.839h.002c0-.18.01-.356.019-.534H0V0zm49.962 29.737v1.848a11.89 11.89 0 0 1-.837.203c-.752.156-1.185.164-1.387.164-.44 0-1.489-.027-2.325-.717-.716-.586-1.085-1.554-1.085-2.527 0-.66.138-1.774 1.103-2.609.771-.672 1.682-.846 2.6-.846.442 0 1.03.035 2.032.266v1.536h-.469l-.469-1.25c-.119-.018-.367-.066-.752-.066-.892 0-1.536.24-1.996.727-.66.698-.735 1.663-.735 2.224 0 .608.11 1.333.617 1.93.56.662 1.304.782 1.81.782.148 0 .45-.02.68-.046v-1.61l-.827-.357v-.277h2.867v.277l-.827.348zm13.18-4.392c.504 0 1.082.008 1.533.359.24.183.58.57.58 1.23 0 .498-.167.929-.561 1.258a2.036 2.036 0 0 1-.927.426l1.845 2.59.782.367v.276h-1.791l-2.087-3.097h-.266v2.463l.826.358v.276h-2.83v-.265l.836-.36V25.98l-.836-.359v-.275h2.895zm-.892 3.023h.588c.275 0 .616-.073.872-.431.175-.24.257-.58.257-.92 0-.23-.035-.496-.127-.68-.24-.497-.727-.55-1.002-.55h-.588v2.581zm19.896.12c0 2.067-1.36 3.511-3.354 3.511-1.83 0-3.06-1.277-3.06-3.19 0-1.994 1.294-3.556 3.308-3.556 1.929 0 3.106 1.368 3.106 3.234zm-4.274-2.353c-.78.707-.81 2.17-.81 2.463 0 2.178 1.058 2.895 1.876 2.895.8 0 1.856-.661 1.856-2.858 0-1.783-.754-2.896-1.874-2.896a1.52 1.52 0 0 0-1.048.396zm19.686-.156v3.62c0 .414-.055 1.196-.616 1.738-.58.56-1.48.634-1.995.634-.534 0-1.304-.064-1.847-.506-.515-.422-.661-.992-.661-1.59V25.99l-.827-.367v-.276h2.884v.276l-.826.358v3.85c0 .277.018.829.34 1.185.33.378.854.406 1.168.406.43 0 1.047-.074 1.369-.562.201-.312.229-.771.229-1.056V25.99l-.827-.367v-.276h2.436v.276l-.827.358zm12.8-.634c.598 0 1.315.018 1.867.432.495.375.662.946.662 1.396 0 .599-.268 1.123-.717 1.453-.167.119-.726.486-1.756.486h-.643v2.106l.918.357v.276h-2.986v-.266l.836-.358V25.98l-.836-.359v-.275h2.655zm-.587 3.335h.341c.331 0 .77-.045 1.093-.367.248-.248.386-.642.386-1.13 0-1.305-.893-1.396-1.296-1.396h-.524v2.893z"/></svg>